<?xml version="1.0" standalone="no"?>
<!DOCTYPE svg PUBLIC "-//W3C//DTD SVG 20010904//EN" "http://www.w3.org/TR/2001/REC-SVG-20010904/DTD/svg10.dtd">
<svg version="1.0" xmlns="http://www.w3.org/2000/svg" width="1536.000000pt" height="1536.000000pt" viewBox="0 0 1536.000000 1536.000000" preserveAspectRatio="xMidYMid meet">
    <g transform="translate(0.000000,1536.000000) scale(0.100000,-0.100000)" fill="#000000" stroke="none">
        <path d="M5280 10325 l0 -715 2400 0 2401 0 -4 -1317 c-3 -1442 -1 -1374 -63
-1637 -118 -492 -386 -934 -767 -1262 -342 -294 -768 -488 -1230 -560 -140
-22 -497 -25 -637 -6 -816 113 -1489 594 -1848 1321 -149 300 -229 604 -248
939 l-7 122 -720 0 -720 0 6 -153 c66 -1528 1014 -2862 2432 -3420 656 -258
1392 -331 2082 -207 1314 238 2407 1134 2896 2375 138 349 224 727 256 1118 7
84 11 812 11 2123 l0 1994 -3120 0 -3120 0 0 -715z" />
    </g>
</svg>