<svg width="5952" height="1024" viewBox="0 0 5952 1024" fill="none" xmlns="http://www.w3.org/2000/svg">
  <g>
    <path fill-rule="evenodd" clip-rule="evenodd" d="M5063.79 0.704102L4928.02 136.469L5304.26 512.702L4927.99 888.966L5063.76 1024.73L5440.02 648.467L5816.26 1024.7L5952.02 888.936L5575.79 512.703L5951.99 136.499L5816.23 0.734226L5440.02 376.938L5063.79 0.704102Z" fill="#09090B" />
    <path d="M4608 0.5L4800 0.5V1024.5H4608V0.5Z" fill="#09090B" />
    <path fill-rule="evenodd" clip-rule="evenodd" d="M4064 0.5H3872V0.73338L3456 0.733398V192.733L3872 192.733V1024.5H4064V192.733L4480 192.733V0.733354L4064 0.733372V0.5Z" fill="#09090B" />
    <path fill-rule="evenodd" clip-rule="evenodd" d="M2453.96 150.195C2357.94 246.213 2304 376.443 2304 512.233H2496C2496 427.364 2529.71 345.971 2589.73 285.959C2649.74 225.948 2731.13 192.233 2816 192.233V193.233L3328 193.233V1.23339L2816 1.23341V0.233398C2680.21 0.233398 2549.98 54.1761 2453.96 150.195ZM3289.03 708.434C3314.76 646.315 3328 579.737 3328 512.5H3136C3136 554.523 3127.72 596.135 3111.64 634.959C3095.56 673.783 3071.99 709.06 3042.27 738.774C3012.56 768.489 2977.28 792.06 2938.46 808.142C2899.63 824.223 2858.02 832.5 2816 832.5L2816 832.233H2304L2304 1024.23H2816L2816 1024.5C2883.24 1024.5 2949.81 1011.26 3011.93 985.526C3074.05 959.796 3130.49 922.082 3178.04 874.539C3225.58 826.995 3263.3 770.553 3289.03 708.434Z" fill="#09090B" />
    <path fill-rule="evenodd" clip-rule="evenodd" d="M1984 0.733398H2176V512.733C2176 648.524 2122.06 778.753 2026.04 874.772C1930.02 970.791 1799.79 1024.73 1664 1024.73C1528.21 1024.73 1397.98 970.791 1301.96 874.772C1205.94 778.753 1152 648.524 1152 512.733V0.733398H1344V512.733C1344 597.603 1377.71 678.996 1437.73 739.008C1497.74 799.019 1579.13 832.733 1664 832.733C1748.87 832.733 1830.26 799.019 1890.27 739.008C1950.29 678.996 1984 597.603 1984 512.733V0.733398Z" fill="#09090B" />
    <path fill-rule="evenodd" clip-rule="evenodd" d="M1024 0H192V192H832V512C832 596.869 798.286 678.263 738.274 738.274C678.263 798.286 596.869 832 512 832C427.131 832 345.737 798.286 285.726 738.274C225.714 678.263 192 596.869 192 512H0C2.05039e-05 647.791 53.9427 778.02 149.961 874.039C245.98 970.057 376.209 1024 512 1024C647.791 1024 778.02 970.057 874.039 874.039C970.057 778.02 1024 647.791 1024 512V192V0Z" fill="#09090B" />
  </g>
</svg>