<svg width="1024" height="1024" viewBox="0 0 1024 1024" fill="none" xmlns="http://www.w3.org/2000/svg">
    <path fill-rule="evenodd" clip-rule="evenodd" d="M1024 0H192V192H832V512C832 596.869 798.286 678.263 738.274 738.274C678.263 798.286 596.869 832 512 832C427.131 832 345.737 798.286 285.726 738.274C225.714 678.263 192 596.869 192 512H0C2.05039e-05 647.791 53.9427 778.02 149.961 874.039C245.98 970.057 376.209 1024 512 1024C647.791 1024 778.02 970.057 874.039 874.039C970.057 778.02 1024 647.791 1024 512V192V0Z" fill="#09090B" />
</svg>