<?xml version="1.0" standalone="no"?>
<!DOCTYPE svg PUBLIC "-//W3C//DTD SVG 20010904//EN" "http://www.w3.org/TR/2001/REC-SVG-20010904/DTD/svg10.dtd">
<svg version="1.0" xmlns="http://www.w3.org/2000/svg" viewBox="0 0 620 620" preserveAspectRatio="xMidYMid meet">
    <g transform="translate(0.000000,620.000000) scale(0.100000,-0.100000)" fill="#000000" stroke="none">
        <path d="M1240 5600 l0 -600 1830 0 1830 0 0 -1139 c0 -719 -4 -1177 -10
    -1242 -74 -734 -550 -1282 -1275 -1469 -161 -42 -318 -60 -510 -60 -325 0
    -587 58 -865 191 -576 276 -913 788 -949 1438 l-6 116 -592 3 -593 2 0 -67 c0
    -89 17 -282 36 -413 142 -976 751 -1738 1694 -2118 880 -354 1933 -315 2770
    104 289 145 513 305 730 523 451 453 699 1013 759 1716 7 77 11 753 11 1868
    l0 1747 -2430 0 -2430 0 0 -600z" />
    </g>
</svg>